<svg width="43" height="19" viewBox="0 0 43 19" fill="none" xmlns="http://www.w3.org/2000/svg">
<path d="M0.7 1.04H13.52V4.74H9.66V18.22H5.26V4.74H1.8L0.7 1.04ZM18.2195 18.22H14.4195V5.5L18.2195 5.1V18.22ZM18.2195 3.88L14.4195 4.28V0.92L18.2195 0.519999V3.88ZM37.7411 1.04L35.2411 18.22H30.4411L28.6211 9.38L26.8211 18.22H22.0211L19.9011 3.7L18.6011 1.04H23.3211L24.7411 12.84L26.7211 1.04H30.5411L32.5211 12.84L33.9411 1.04H37.7411ZM42.0438 18.22H38.2438V5.5L42.0438 5.1V18.22ZM42.0438 3.88L38.2438 4.28V0.92L42.0438 0.519999V3.88Z" fill="#FFC13C"/>
</svg>
